<svg xmlns="http://www.w3.org/2000/svg" width="1024" height="1024" version="1.2"><g id="Layer 1"><path d="M673 662a41 41 0 0 1 28 7l26 22 48 42 63 55c10 8 21 17 30 27 4 3 7 7 10 12 8 14 11 32 6 48a65 65 0 0 1-43 44 59 59 0 0 1-61-21l-22-31-36-52-45-64-24-35c-2-4-5-9-6-14-2-9-1-18 4-25 5-9 13-13 22-15zM343 661l11 1c9 2 17 8 21 16 5 8 6 17 3 25-3 12-24 38-31 49l-50 73-32 47-20 27c-5 7-10 12-18 15a59 59 0 0 1-60-3c-14-9-23-24-27-40-3-15 0-34 9-47 10-14 28-28 42-39l65-57 45-39c8-7 16-15 25-21 5-4 11-6 17-7zM572 716l14 2c9 4 15 10 19 19l17 42 31 80 23 57c4 10 9 21 12 32a63 63 0 0 1-36 70l-13 4c-17 3-33-1-46-10a66 66 0 0 1-26-43l-6-48-11-88-5-50c-2-11-4-22-4-32 1-9 2-15 7-22 6-8 15-11 24-13zM450 716l12 2c9 3 15 9 19 17 3 6 4 13 3 19 0 13-2 25-4 38l-8 70-9 75c-2 14-3 30-7 43-5 16-17 30-33 38a59 59 0 0 1-61-6 62 62 0 0 1-23-64c2-9 6-17 9-25l16-41 37-94c5-13 17-49 25-59 6-8 15-11 24-13zM277 566c5-1 9-1 13 1 9 2 17 8 22 16 4 8 5 17 3 25-3 12-11 17-20 23l-122 63-45 23c-9 5-19 12-29 14a61 61 0 0 1-51-9 62 62 0 0 1-26-42 61 61 0 0 1 38-67c11-4 22-5 33-8l48-10 86-19c17-3 33-8 50-10zM58 395h2c15-1 40 8 56 13l73 20 60 17 33 9c5 2 10 4 14 8 7 6 11 14 11 24 0 9-4 17-10 23-13 13-31 10-47 10l-126-1-43-1c-11 0-21 1-31-1s-19-6-27-13a62 62 0 0 1-9-86c11-14 27-21 44-22zM739 566c12 0 41 7 54 10l88 19 48 10 30 6a62 62 0 0 1 10 116 63 63 0 0 1-44 4c-13-4-26-12-37-18l-65-35-63-33c-11-5-23-11-34-18-8-5-13-12-15-22-2-8 0-17 5-25 6-8 14-12 23-14zM960 395h2c16-1 32 5 43 16a62 62 0 0 1 2 87c-8 8-18 15-29 17-15 4-47 2-63 3l-132 1c-17 1-38 4-52-8-7-5-11-13-12-22s2-18 8-25c5-5 9-7 15-9 12-5 25-8 38-11l67-19 70-20c14-4 29-9 43-10zM716 54h4a58 58 0 0 1 63 58c0 9-2 19-7 27-7 15-18 29-27 43l-45 65-35 52c-7 9-13 21-21 29-5 5-10 8-17 10-8 1-18 0-25-5-8-5-13-14-15-23-1-6 0-11 2-18l14-35 24-64 29-74c6-13 10-30 18-41 9-14 23-21 38-24zM296 55c8 0 16 1 23 4 16 6 27 18 34 34l17 42 32 81 21 52 11 31c1 6 0 13-2 19-4 8-10 15-18 18a35 35 0 0 1-35-6c-10-9-22-30-30-41l-42-61-36-52-20-30a62 62 0 0 1 4-70c11-13 25-20 41-21zM871 198a62 62 0 0 1 61 31 62 62 0 0 1-11 74c-9 8-20 13-31 18l-31 17-121 66c-7 4-14 8-21 9-9 2-17 0-24-5a33 33 0 0 1-8-47c7-10 18-18 27-26l58-55 46-45c10-9 19-19 29-26 8-6 16-10 26-11zM140 199a55 55 0 0 1 42 13l26 23 43 41 53 50 30 28c4 4 8 8 10 13 3 7 3 18 0 26s-10 15-18 18c-10 4-19 2-29-2-41-21-81-44-122-66l-40-22c-9-5-18-9-26-15-13-10-21-24-23-39a60 60 0 0 1 54-68zM511 0c12 0 24 3 34 10 14 10 23 24 25 41 2 11-3 43-5 57l-10 80-7 60-4 32c-1 7-3 13-7 18-5 7-13 11-22 13-8 0-15-2-22-7-5-4-8-10-10-16-3-10-4-21-5-32l-6-47-11-96-6-50a59 59 0 0 1 56-63z" class="s0"/></g></svg>